<?xml version="1.0" encoding="UTF-8"?>
<svg width="55px" height="71px" viewBox="0 0 55 71" version="1.1" xmlns="http://www.w3.org/2000/svg" xmlns:xlink="http://www.w3.org/1999/xlink">
    <!-- Generator: Sketch 53 (72520) - https://sketchapp.com -->
    <title>icons/highlighted pin copy</title>
    <desc>Created with Sketch.</desc>
    <defs>
        <polygon id="path-1" points="0 0.850630561 8.55455557 0.850630561 8.55455557 25.0157246 0 25.0157246"></polygon>
        <polygon id="path-3" points="0.270239786 0.850964797 8.95386758 0.850964797 8.95386758 25.0162259 0.270239786 25.0162259"></polygon>
        <polygon id="path-5" points="1.16330689 0.625188395 2.82020318 0.625188395 2.82020318 21.7253385 1.16330689 21.7253385"></polygon>
    </defs>
    <g id="Webmab-mobile" stroke="none" stroke-width="1" fill="none" fill-rule="evenodd">
        <g id="Artboard-Copy" transform="translate(-104.000000, -140.000000)">
            <g id="icons/pins/highlighted-pin" transform="translate(104.000000, 140.000000)">
                <g id="highlighted-map-pin" transform="translate(-0.000000, 0.000000)">
                    <path d="M27.16347,70.5 C45.27245,51.8526236 54.32694,37.4851696 54.32694,27.3976379 C54.32694,12.2663403 42.1654403,-1.49213975e-13 27.16347,-1.49213975e-13 C12.1614998,-1.49213975e-13 -2.62900812e-13,12.2663403 -2.62900812e-13,27.3976379 C-2.62900812e-13,37.4851696 9.05449001,51.8526236 27.16347,70.5 Z" id="Oval" fill="#FFFFFF"></path>
                    <path d="M27.6435504,63.3893392 C42.5710676,48.0180134 50.0348261,36.1746949 50.0348261,27.8593838 C50.0348261,15.3864171 40.0099105,5.27507976 27.6435504,5.27507976 C15.2771902,5.27507976 5.25227457,15.3864171 5.25227457,27.8593838 C5.25227457,36.1746949 12.7160332,48.0180134 27.6435504,63.3893392 Z" id="Oval-Copy-4" fill="#86C232"></path>
                    <g id="tree" transform="translate(20.017800, 12.380699)">
                        <g id="left-part" transform="translate(0.000000, 0.819301)">
                            <mask id="mask-2" fill="white">
                                <use xlink:href="#path-1"></use>
                            </mask>
                            <g id="Clip-2"></g>
                            <path d="M6.58058482,2.10551954 C3.94842403,6.29349632 -0.023148849,13.1369779 -0.023148849,16.3222468 C-0.023148849,21.090123 3.94669576,24.9605756 8.86190605,25.0140534 C8.87400397,25.0157246 8.88783016,25.0157246 8.89992807,25.0157246 L8.89992807,0.850458449 C8.00295404,0.848792263 7.10943656,1.26658723 6.58058482,2.10551954" id="Fill-1" fill="#FFFFFF" mask="url(#mask-2)"></path>
                        </g>
                        <g id="right-part" transform="translate(8.284481, 0.819301)">
                            <mask id="mask-4" fill="white">
                                <use xlink:href="#path-3"></use>
                            </mask>
                            <g id="Clip-5"></g>
                            <path d="M1.32034091,2.08095319 C0.813330643,1.26207505 -0.0283726748,0.852635977 -0.871732889,0.850964797 L-0.871732889,25.0162259 L-0.807113934,25.0162259 C3.95314912,25.0162259 7.81206059,21.124048 7.81206059,16.321077 C7.81206059,13.1090692 3.90509913,6.2589029 1.32034091,2.08095319" id="Fill-4" fill="#E6E6E6" mask="url(#mask-4)"></path>
                        </g>
                        <g id="stem" transform="translate(6.627585, 17.532682)">
                            <mask id="mask-6" fill="white">
                                <use xlink:href="#path-5"></use>
                            </mask>
                            <g id="Clip-8"></g>
                            <path d="M2.63048856,21.7255056 L2.63048856,1.27026383 C2.63048856,0.914302515 2.3438455,0.625188395 1.99092659,0.625188395 C1.63800768,0.625188395 1.35302151,0.914302515 1.35302151,1.27026383 L1.35302151,21.7255056 L2.63048856,21.7255056 Z" id="Fill-7" fill="#FFFFFF" mask="url(#mask-6)"></path>
                        </g>
                    </g>
                </g>
            </g>
        </g>
    </g>
</svg>