<?xml version="1.0" encoding="UTF-8"?>
<svg xmlns="http://www.w3.org/2000/svg" width="400" height="70" version="1.1">
  <g>
    <title>Layer 1</title>
    <g id="svgg">
      <path fill-rule="evenodd" fill="#24242c" d="m391.5,32.257l0,7.256l-0.679,-0.627c-3.76,-3.48 -10.141,-3.985 -14.904,-1.18c-7.912,4.659 -9.646,16.89 -3.458,24.391c5.085,6.165 13.409,6.92 18.416,1.67l0.625,-0.656l0,1.861l0,1.861l4.25,0l4.25,0l0,-20.916l0,-20.917l-4.25,0l-4.25,0l0,7.257m-297.283,-5.741c-8.811,0.655 -16.589,7.665 -18.15,16.357c-1.665,9.271 2.243,17.723 10.183,22.021c7.651,4.142 19.219,2.75 25.224,-3.036l1.026,-0.988l0,-7.185l0,-7.185l-4.5,0l-4.5,0l0,5.425l0,5.426l-1.073,0.502c-7.169,3.355 -15.428,-0.295 -17.042,-7.531c-2.768,-12.408 9.745,-20.135 19.903,-12.29c1.266,0.977 1.168,0.981 1.879,-0.072c0.32,-0.475 1.359,-1.986 2.308,-3.357l1.724,-2.492l-0.641,-0.557c-4.215,-3.66 -10.173,-5.497 -16.341,-5.038m183.95,5.317l0,4.5l-1.834,0l-1.833,0l0,3.167l0,3.167l1.825,0l1.825,0l0.055,8.375l0.055,8.375l0.452,1.233c0.248,0.678 0.682,1.592 0.963,2.03c3.407,5.309 11.5,6.097 16.56,1.613l0.819,-0.726l-1.134,-2.158c-0.623,-1.188 -1.355,-2.556 -1.626,-3.041l-0.493,-0.881l-0.717,0.661c-1.836,1.693 -3.947,1.947 -5.224,0.63c-0.983,-1.014 -1.027,-1.407 -1.027,-9.138l0,-6.973l3.667,0l3.667,0l0,-3.167l0,-3.167l-3.667,0l-3.667,0l0,-4.5l0,-4.5l-4.333,0l-4.333,0l0,4.5m-143.086,4.243c-2.108,0.383 -4.209,1.415 -6.053,2.973l-0.945,0.798l-0.083,-1.715l-0.083,-1.715l-4.375,-0.045l-4.375,-0.044l0,15.253l0,15.252l4.409,0l4.409,0l0.055,-8.041c0.048,-7.085 0.09,-8.161 0.349,-9.042c1.117,-3.804 3.084,-5.425 6.736,-5.554l1.875,-0.065l0,-4.149l0,-4.149l-0.375,0.015c-0.206,0.009 -0.901,0.111 -1.544,0.228m18.998,-0.084c-5.292,0.605 -9.807,3.773 -12.003,8.425c-2.382,5.045 -1.808,12.263 1.324,16.652c5.266,7.379 17.763,8.319 24.808,1.867c0.657,-0.602 0.678,-0.564 -1.81,-3.243c-2.698,-2.906 -2.342,-2.723 -3.52,-1.799c-4.583,3.596 -11.865,2.297 -13.428,-2.394l-0.25,-0.75l10.999,-0.043l10.999,-0.043l-0.076,-3.874c-0.082,-4.134 -0.194,-4.841 -1.071,-6.763c-2.566,-5.625 -8.95,-8.836 -15.972,-8.035m34.666,0c-9.158,1.046 -14.87,9.26 -13.182,18.957c1.346,7.726 7.079,12.137 15.77,12.133c5.094,-0.003 7.765,-0.972 11.651,-4.224l0.568,-0.475l-2.394,-2.608c-2.747,-2.992 -2.414,-2.82 -3.63,-1.876c-4.309,3.343 -10.956,2.528 -13.017,-1.596c-0.909,-1.82 -2.078,-1.636 10.423,-1.636l10.935,0l-0.082,-3.792c-0.068,-3.152 -0.14,-4.003 -0.428,-5.042c-1.843,-6.65 -8.746,-10.739 -16.614,-9.841m38.343,0.018c-2.16,0.334 -4.177,1.285 -5.923,2.791l-0.832,0.717l0,-1.592l0,-1.593l-4.333,0l-4.333,0l0,15.25l0,15.25l4.333,0l4.333,0l0.005,-8.541c0.003,-4.698 0.078,-9.104 0.166,-9.792c0.789,-6.128 8.563,-7.888 10.512,-2.38l0.401,1.13l0.049,9.792l0.049,9.791l4.326,0l4.326,0l0,-10.257c0,-8.707 -0.04,-10.451 -0.264,-11.541c-1.262,-6.137 -6.705,-9.971 -12.815,-9.025m29.792,0.001c-6.232,0.702 -10.12,4.64 -9.838,9.962c0.221,4.161 2.669,6.429 9.291,8.609c4.271,1.405 6,2.504 6,3.813c0,3.182 -7.076,2.777 -12.318,-0.705c-1.31,-0.87 -1.063,-0.979 -2.501,1.103c-0.68,0.985 -1.527,2.186 -1.883,2.669c-0.768,1.043 -0.806,0.958 0.916,2.096c10.697,7.072 23.931,3.652 23.949,-6.188c0.01,-4.943 -1.607,-6.546 -9.246,-9.169c-4.435,-1.524 -5.472,-2.003 -5.83,-2.694c-1.706,-3.299 4.793,-3.887 9.969,-0.902c1.575,0.909 1.262,1.139 3.19,-2.343l1.469,-2.655l-0.482,-0.388c-2.821,-2.272 -8.424,-3.689 -12.686,-3.208m55.162,-0.011c-2.888,0.303 -5.746,1.096 -7.959,2.207c-1.381,0.694 -3.25,1.917 -3.25,2.127c0,0.151 2.287,3.546 3.452,5.126l0.401,0.543l0.739,-0.509c3.198,-2.2 8.168,-3.224 10.541,-2.171c1.44,0.639 2.063,1.56 2.457,3.635l0.103,0.542l-3.554,0.003c-10.901,0.009 -15.372,2.772 -15.365,9.497c0.007,6.049 4.151,9.949 10.772,10.134c3.671,0.103 5.288,-0.469 7.628,-2.697l0.993,-0.945l0,1.671l0,1.67l4.092,0l4.092,0l-0.061,-11.041c-0.068,-12.32 -0.046,-12.06 -1.252,-14.357c-2.132,-4.06 -7.357,-6.113 -13.829,-5.435m38.125,-0.008c-2.113,0.301 -4.164,1.196 -5.831,2.545l-1.003,0.811l0,-1.51l0,-1.51l-4.375,0.044l-4.375,0.045l-0.042,15.208l-0.043,15.208l4.418,0l4.417,0l0,-9.215c0,-10.16 0.023,-10.429 1.03,-11.998c1.976,-3.079 6.418,-3.737 8.534,-1.264c1.383,1.615 1.347,1.294 1.402,12.519l0.049,9.958l4.409,0l4.41,0l0,-9.125c-0.001,-9.835 -0.117,-12.007 -0.75,-14.003c-1.67,-5.265 -6.794,-8.491 -12.25,-7.713m-191.548,7.535c1.332,0.498 2.856,2.022 3.354,3.354c0.667,1.784 1.286,1.619 -6.056,1.619l-6.417,0l0,-0.392c0,-3.123 5.553,-5.913 9.119,-4.581m35.08,0.191c1.697,0.83 2.904,2.385 3.225,4.157l0.113,0.625l-6.435,0c-7.352,0 -6.784,0.151 -5.96,-1.583c1.491,-3.135 5.961,-4.714 9.057,-3.199m193.468,0.064c4.838,2.334 5.93,10.521 1.894,14.209c-4.84,4.424 -11.911,0.184 -11.519,-6.908c0.308,-5.58 5.316,-9.38 9.625,-7.301m-68.835,11.176c-0.002,3.037 -2.208,5.075 -5.499,5.08c-2.901,0.004 -4.416,-1.066 -4.416,-3.121c0,-2.397 1.441,-3.024 7.041,-3.063l2.875,-0.021l-0.001,1.125" id="path1"></path>
      <path fill-rule="evenodd" fill="#84c434" d="m11.128,0.292c-0.256,0.291 -0.819,1.128 -2.365,3.521c-3.178,4.917 -6.422,13.06 -7.673,19.264c-1.567,7.772 -1.475,18.047 0.229,25.423c1.483,6.42 3.88,12.453 7.069,17.792l0.523,0.875l8.602,0l8.603,0l0.677,-1.792c8.344,-22.064 3.335,-46.551 -12.937,-63.25c-2.156,-2.213 -2.306,-2.313 -2.728,-1.833m21.747,8.132c-7.391,1.99 -6.797,12.565 0.781,13.919c3.024,0.54 6.357,-1.177 7.615,-3.924c2.567,-5.609 -2.459,-11.593 -8.396,-9.995m15.931,11.568c-2.071,1.042 -4.38,2.463 -7.056,4.345c-1.58,1.111 -3.623,2.887 -5.748,4.996c-1.884,1.87 -1.756,1.455 -1.273,4.11c1.949,10.722 0.813,22.016 -3.252,32.353c-0.262,0.667 -0.477,1.248 -0.477,1.292c0,0.043 2.243,0.079 4.984,0.079l4.983,0l0.82,-0.959c10.801,-12.624 14.673,-31.33 9.694,-46.833c-0.217,-0.678 0.004,-0.729 -2.675,0.617" id="path0"></path>
      <path fill-rule="evenodd" fill="#24242c" d="m391.5,32.257l0,7.256l-0.679,-0.627c-3.76,-3.48 -10.141,-3.985 -14.904,-1.18c-7.912,4.659 -9.646,16.89 -3.458,24.391c5.085,6.165 13.409,6.92 18.416,1.67l0.625,-0.656l0,1.861l0,1.861l4.25,0l4.25,0l0,-20.916l0,-20.917l-4.25,0l-4.25,0l0,7.257m-297.283,-5.741c-8.811,0.655 -16.589,7.665 -18.15,16.357c-1.665,9.271 2.243,17.723 10.183,22.021c7.651,4.142 19.219,2.75 25.224,-3.036l1.026,-0.988l0,-7.185l0,-7.185l-4.5,0l-4.5,0l0,5.425l0,5.426l-1.073,0.502c-7.169,3.355 -15.428,-0.295 -17.042,-7.531c-2.768,-12.408 9.745,-20.135 19.903,-12.29c1.266,0.977 1.168,0.981 1.879,-0.072c0.32,-0.475 1.359,-1.986 2.308,-3.357l1.724,-2.492l-0.641,-0.557c-4.215,-3.66 -10.173,-5.497 -16.341,-5.038m183.95,5.317l0,4.5l-1.834,0l-1.833,0l0,3.167l0,3.167l1.825,0l1.825,0l0.055,8.375l0.055,8.375l0.452,1.233c0.248,0.678 0.682,1.592 0.963,2.03c3.407,5.309 11.5,6.097 16.56,1.613l0.819,-0.726l-1.134,-2.158c-0.623,-1.188 -1.355,-2.556 -1.626,-3.041l-0.493,-0.881l-0.717,0.661c-1.836,1.693 -3.947,1.947 -5.224,0.63c-0.983,-1.014 -1.027,-1.407 -1.027,-9.138l0,-6.973l3.667,0l3.667,0l0,-3.167l0,-3.167l-3.667,0l-3.667,0l0,-4.5l0,-4.5l-4.333,0l-4.333,0l0,4.5m-143.086,4.243c-2.108,0.383 -4.209,1.415 -6.053,2.973l-0.945,0.798l-0.083,-1.715l-0.083,-1.715l-4.375,-0.045l-4.375,-0.044l0,15.253l0,15.252l4.409,0l4.409,0l0.055,-8.041c0.048,-7.085 0.09,-8.161 0.349,-9.042c1.117,-3.804 3.084,-5.425 6.736,-5.554l1.875,-0.065l0,-4.149l0,-4.149l-0.375,0.015c-0.206,0.009 -0.901,0.111 -1.544,0.228m18.998,-0.084c-5.292,0.605 -9.807,3.773 -12.003,8.425c-2.382,5.045 -1.808,12.263 1.324,16.652c5.266,7.379 17.763,8.319 24.808,1.867c0.657,-0.602 0.678,-0.564 -1.81,-3.243c-2.698,-2.906 -2.342,-2.723 -3.52,-1.799c-4.583,3.596 -11.865,2.297 -13.428,-2.394l-0.25,-0.75l10.999,-0.043l10.999,-0.043l-0.076,-3.874c-0.082,-4.134 -0.194,-4.841 -1.071,-6.763c-2.566,-5.625 -8.95,-8.836 -15.972,-8.035m34.666,0c-9.158,1.046 -14.87,9.26 -13.182,18.957c1.346,7.726 7.079,12.137 15.77,12.133c5.094,-0.003 7.765,-0.972 11.651,-4.224l0.568,-0.475l-2.394,-2.608c-2.747,-2.992 -2.414,-2.82 -3.63,-1.876c-4.309,3.343 -10.956,2.528 -13.017,-1.596c-0.909,-1.82 -2.078,-1.636 10.423,-1.636l10.935,0l-0.082,-3.792c-0.068,-3.152 -0.14,-4.003 -0.428,-5.042c-1.843,-6.65 -8.746,-10.739 -16.614,-9.841m38.343,0.018c-2.16,0.334 -4.177,1.285 -5.923,2.791l-0.832,0.717l0,-1.592l0,-1.593l-4.333,0l-4.333,0l0,15.25l0,15.25l4.333,0l4.333,0l0.005,-8.541c0.003,-4.698 0.078,-9.104 0.166,-9.792c0.789,-6.128 8.563,-7.888 10.512,-2.38l0.401,1.13l0.049,9.792l0.049,9.791l4.326,0l4.326,0l0,-10.257c0,-8.707 -0.04,-10.451 -0.264,-11.541c-1.262,-6.137 -6.705,-9.971 -12.815,-9.025m29.792,0.001c-6.232,0.702 -10.12,4.64 -9.838,9.962c0.221,4.161 2.669,6.429 9.291,8.609c4.271,1.405 6,2.504 6,3.813c0,3.182 -7.076,2.777 -12.318,-0.705c-1.31,-0.87 -1.063,-0.979 -2.501,1.103c-0.68,0.985 -1.527,2.186 -1.883,2.669c-0.768,1.043 -0.806,0.958 0.916,2.096c10.697,7.072 23.931,3.652 23.949,-6.188c0.01,-4.943 -1.607,-6.546 -9.246,-9.169c-4.435,-1.524 -5.472,-2.003 -5.83,-2.694c-1.706,-3.299 4.793,-3.887 9.969,-0.902c1.575,0.909 1.262,1.139 3.19,-2.343l1.469,-2.655l-0.482,-0.388c-2.821,-2.272 -8.424,-3.689 -12.686,-3.208m55.162,-0.011c-2.888,0.303 -5.746,1.096 -7.959,2.207c-1.381,0.694 -3.25,1.917 -3.25,2.127c0,0.151 2.287,3.546 3.452,5.126l0.401,0.543l0.739,-0.509c3.198,-2.2 8.168,-3.224 10.541,-2.171c1.44,0.639 2.063,1.56 2.457,3.635l0.103,0.542l-3.554,0.003c-10.901,0.009 -15.372,2.772 -15.365,9.497c0.007,6.049 4.151,9.949 10.772,10.134c3.671,0.103 5.288,-0.469 7.628,-2.697l0.993,-0.945l0,1.671l0,1.67l4.092,0l4.092,0l-0.061,-11.041c-0.068,-12.32 -0.046,-12.06 -1.252,-14.357c-2.132,-4.06 -7.357,-6.113 -13.829,-5.435m38.125,-0.008c-2.113,0.301 -4.164,1.196 -5.831,2.545l-1.003,0.811l0,-1.51l0,-1.51l-4.375,0.044l-4.375,0.045l-0.042,15.208l-0.043,15.208l4.418,0l4.417,0l0,-9.215c0,-10.16 0.023,-10.429 1.03,-11.998c1.976,-3.079 6.418,-3.737 8.534,-1.264c1.383,1.615 1.347,1.294 1.402,12.519l0.049,9.958l4.409,0l4.41,0l0,-9.125c-0.001,-9.835 -0.117,-12.007 -0.75,-14.003c-1.67,-5.265 -6.794,-8.491 -12.25,-7.713m-191.548,7.535c1.332,0.498 2.856,2.022 3.354,3.354c0.667,1.784 1.286,1.619 -6.056,1.619l-6.417,0l0,-0.392c0,-3.123 5.553,-5.913 9.119,-4.581m35.08,0.191c1.697,0.83 2.904,2.385 3.225,4.157l0.113,0.625l-6.435,0c-7.352,0 -6.784,0.151 -5.96,-1.583c1.491,-3.135 5.961,-4.714 9.057,-3.199m193.468,0.064c4.838,2.334 5.93,10.521 1.894,14.209c-4.84,4.424 -11.911,0.184 -11.519,-6.908c0.308,-5.58 5.316,-9.38 9.625,-7.301m-68.835,11.176c-0.002,3.037 -2.208,5.075 -5.499,5.08c-2.901,0.004 -4.416,-1.066 -4.416,-3.121c0,-2.397 1.441,-3.024 7.041,-3.063l2.875,-0.021l-0.001,1.125" id="path1"></path>
    </g>
  </g>
</svg>
