<svg width="20" height="18" viewBox="0 0 20 18" fill="none" xmlns="http://www.w3.org/2000/svg">
<path d="M1.98438 15H18.0156V3H1.98438V15ZM0.015625 0.984375H19.9844V17.0156H0.015625V0.984375ZM15.0156 11.0156V6.98438H13.9844V11.0156H15.0156ZM16 5.01562C16.2812 5.01562 16.5156 5.10938 16.7031 5.29688C16.8906 5.48438 16.9844 5.71875 16.9844 6V12C16.9844 12.2812 16.8906 12.5156 16.7031 12.7031C16.5156 12.8906 16.2812 12.9844 16 12.9844H13C12.7188 12.9844 12.4844 12.8906 12.2969 12.7031C12.1094 12.5156 12.0156 12.2812 12.0156 12V6C12.0156 5.71875 12.1094 5.48438 12.2969 5.29688C12.4844 5.10938 12.7188 5.01562 13 5.01562H16ZM9.01562 11.0156V6.98438H7.98438V11.0156H9.01562ZM10 5.01562C10.2812 5.01562 10.5156 5.10938 10.7031 5.29688C10.8906 5.48438 10.9844 5.71875 10.9844 6V12C10.9844 12.2812 10.8906 12.5156 10.7031 12.7031C10.5156 12.8906 10.2812 12.9844 10 12.9844H7C6.71875 12.9844 6.48438 12.8906 6.29688 12.7031C6.10938 12.5156 6.01562 12.2812 6.01562 12V6C6.01562 5.71875 6.10938 5.48438 6.29688 5.29688C6.48438 5.10938 6.71875 5.01562 7 5.01562H10ZM3.01562 5.01562H4.98438V12.9844H3.01562V5.01562Z" fill="#585B5D"/>
</svg>
